<svg xmlns="http://www.w3.org/2000/svg" data-name="Layer 1" viewBox="0 0 100 125" x="0px" y="0px"><title>Artboard 41 copy 18</title><path d="M77.91,48.5a1.5,1.5,0,0,0-1.5,1.5V75.84a.67.67,0,0,1-.66.66H24.06a.66.66,0,0,1-.65-.66V24.15a.65.65,0,0,1,.65-.65H49.91a1.5,1.5,0,0,0,0-3H24.06a3.64,3.64,0,0,0-3.65,3.65V75.84a3.65,3.65,0,0,0,3.65,3.66H75.75a3.66,3.66,0,0,0,3.66-3.66V50A1.51,1.51,0,0,0,77.91,48.5Z"/><path d="M79.76,22a1.5,1.5,0,0,0-.11-.55h0a1.63,1.63,0,0,0-.33-.49,1.47,1.47,0,0,0-1.07-.44h0l-18.47.11a1.5,1.5,0,1,0,0,3h0l14.83-.09L53.55,44.58a1.51,1.51,0,0,0,0,2.12,1.53,1.53,0,0,0,1.06.44,1.49,1.49,0,0,0,1.06-.44L76.74,25.64l-.09,14.82A1.49,1.49,0,0,0,78.14,42h0a1.51,1.51,0,0,0,1.5-1.49L79.76,22h0Z"/><text x="0" y="115" fill="#000000" font-size="5px" font-weight="bold" font-family="'Helvetica Neue', Helvetica, Arial-Unicode, Arial, Sans-serif">Created by shwepes</text><text x="0" y="120" fill="#000000" font-size="5px" font-weight="bold" font-family="'Helvetica Neue', Helvetica, Arial-Unicode, Arial, Sans-serif">from the Noun Project</text></svg>